<?xml version="1.0" encoding="UTF-8"?>
<svg width="673px" height="681px" viewBox="0 0 673 681" version="1.1" xmlns="http://www.w3.org/2000/svg" xmlns:xlink="http://www.w3.org/1999/xlink">
    <!-- Generator: Sketch 48.2 (47327) - http://www.bohemiancoding.com/sketch -->
    <title>Artboard 8 Copy 2</title>
    <desc>Created with Sketch.</desc>
    <defs>
        <linearGradient x1="75.765249%" y1="97.2760723%" x2="-59.4886573%" y2="2.20589185%" id="linearGradient-1">
            <stop stop-color="#5CFFE0" stop-opacity="0" offset="0%"></stop>
            <stop stop-color="#00FACA" stop-opacity="0.684952446" offset="15.7075292%"></stop>
            <stop stop-color="#5EFFE0" offset="34.9350287%"></stop>
            <stop stop-color="#AB34FC" offset="100%"></stop>
        </linearGradient>
        <linearGradient x1="50%" y1="3.27269563%" x2="85.9523378%" y2="100%" id="linearGradient-2">
            <stop stop-color="#FFFFFF" offset="0%"></stop>
            <stop stop-color="#FFFFFF" offset="67.294875%"></stop>
            <stop stop-color="#FFFFFF" stop-opacity="0" offset="100%"></stop>
        </linearGradient>
        <linearGradient x1="50%" y1="0%" x2="50%" y2="100%" id="linearGradient-3">
            <stop stop-color="#ACC0C2" offset="0%"></stop>
            <stop stop-color="#738C8E" stop-opacity="0" offset="100%"></stop>
        </linearGradient>
        <linearGradient x1="-147.225088%" y1="-3.88057201%" x2="88.8103902%" y2="91.7688352%" id="linearGradient-4">
            <stop stop-color="#19F3FF" offset="0%"></stop>
            <stop stop-color="#0BFF7B" offset="77.6207749%"></stop>
            <stop stop-color="#0BFF7B" stop-opacity="0" offset="100%"></stop>
        </linearGradient>
        <linearGradient x1="-75.2637167%" y1="-3.161121%" x2="82.2223842%" y2="96.462222%" id="linearGradient-5">
            <stop stop-color="#FF5C5C" offset="3.61128827%"></stop>
            <stop stop-color="#562EFF" offset="85.7302296%"></stop>
            <stop stop-color="#562EFF" stop-opacity="0" offset="100%"></stop>
        </linearGradient>
        <linearGradient x1="-17.0708713%" y1="-8.38790964%" x2="109.229499%" y2="90.0054929%" id="linearGradient-6">
            <stop stop-color="#19F3FF" offset="0%"></stop>
            <stop stop-color="#FFC90B" offset="85.5981649%"></stop>
            <stop stop-color="#FFC90B" stop-opacity="0" offset="100%"></stop>
        </linearGradient>
        <linearGradient x1="50%" y1="3.38107355%" x2="50%" y2="100%" id="linearGradient-7">
            <stop stop-color="#80F3FC" offset="0%"></stop>
            <stop stop-color="#009ED5" offset="83.3673251%"></stop>
            <stop stop-color="#009ED5" stop-opacity="0" offset="100%"></stop>
        </linearGradient>
        <path d="M230.300568,200.367091 L229.836197,189.493043 C229.825035,189.231648 230.062922,188.924623 230.338405,188.844881 L232.955488,188.087324 C233.258519,187.999607 233.488952,188.171068 233.500114,188.432463 L233.956672,199.123534 C234.051555,201.345395 235.724144,202.634236 238.120842,201.940473 C240.517539,201.24671 242.068095,199.024879 241.974328,196.829157 L241.516655,186.111947 C241.505492,185.850552 241.715832,185.551501 242.018862,185.463784 L244.635946,184.706227 C244.911428,184.626484 245.169409,184.789972 245.180572,185.051367 L245.644943,195.925415 C245.814617,199.898625 242.618581,204.078676 238.265958,205.338613 C233.940883,206.590575 230.470242,204.340301 230.300568,200.367091 Z M251.346552,200.784807 L250.607577,183.480433 C250.596414,183.219038 250.834302,182.912013 251.109785,182.832271 L253.671772,182.090662 C253.947254,182.010919 254.205235,182.174407 254.216398,182.435802 L254.955373,199.740176 C254.966536,200.001571 254.728648,200.308596 254.453165,200.388339 L251.891178,201.129947 C251.615696,201.20969 251.357715,201.046203 251.346552,200.784807 Z" id="path-8"></path>
        <filter x="-23.9%" y="-21.2%" width="139.8%" height="142.3%" filterUnits="objectBoundingBox" id="filter-9">
            <feMorphology radius="1" operator="dilate" in="SourceAlpha" result="shadowSpreadOuter1"></feMorphology>
            <feOffset dx="-1" dy="0" in="shadowSpreadOuter1" result="shadowOffsetOuter1"></feOffset>
            <feGaussianBlur stdDeviation="0.5" in="shadowOffsetOuter1" result="shadowBlurOuter1"></feGaussianBlur>
            <feColorMatrix values="0 0 0 0 0.26918643   0 0 0 0 0.0821578142   0 0 0 0 0.530904549  0 0 0 0.5 0" type="matrix" in="shadowBlurOuter1"></feColorMatrix>
        </filter>
        <path d="M314.367621,189.854544 L308.472812,171.710544 C308.344439,171.332544 308.545463,171.062544 308.923044,171.062544 L311.404291,171.062544 C311.620052,171.062544 311.84482,171.251544 311.907729,171.440544 L315.163246,182.213544 L315.268753,182.213544 L319.091663,171.089544 C319.140214,170.927544 319.270648,170.792544 319.540493,170.792544 L320.026212,170.792544 C320.296057,170.792544 320.435122,170.927544 320.494032,171.089544 L325.054574,182.213544 L325.160081,182.213544 L327.673459,171.440544 C327.724272,171.251544 327.936947,171.062544 328.152707,171.062544 L330.633954,171.062544 C331.011535,171.062544 331.229837,171.332544 331.125654,171.710544 L326.391915,189.854544 C326.344248,190.070544 326.139851,190.232544 325.932249,190.232544 L325.517044,190.232544 C325.283492,190.232544 325.124781,190.097544 325.069239,189.935544 L320.030942,177.704544 L319.897858,177.704544 L315.695481,189.935544 C315.624347,190.097544 315.526183,190.232544 315.26668,190.232544 L314.851476,190.232544 C314.643874,190.232544 314.42911,190.070544 314.367621,189.854544 Z M334.987277,189.449544 L334.950229,171.575544 C334.94967,171.305544 335.164927,171.062544 335.461597,171.062544 L346.438418,171.062544 C346.735088,171.062544 346.9456,171.305544 346.939768,171.575544 L346.891946,173.789544 C346.886114,174.059544 346.666484,174.302544 346.371709,174.302544 L338.439585,174.302544 L338.41814,178.730544 L344.978994,178.730544 C345.244615,178.730544 345.47906,178.973544 345.473931,179.243544 L345.431367,181.484544 C345.425726,181.781544 345.184129,181.997544 344.920245,181.997544 L338.402319,181.997544 L338.379436,186.722544 L346.115991,186.722544 C346.403498,186.722544 346.607345,186.965544 346.601513,187.235544 L346.553691,189.449544 C346.547859,189.719544 346.334893,189.962544 346.049282,189.962544 L335.481669,189.962544 C335.196057,189.962544 334.987837,189.719544 334.987277,189.449544 Z M350.920337,189.449544 L351.466156,171.575544 C351.474401,171.305544 351.697582,171.062544 351.994253,171.062544 L358.1704,171.062544 C361.379839,171.062544 363.742384,173.222544 363.586588,176.057544 C363.472338,178.136544 361.713334,179.756544 360.438311,180.350544 C361.817706,180.809544 363.772801,182.267544 363.633652,184.751544 C363.464252,187.775544 360.849133,189.962544 357.681446,189.962544 L351.398,189.962544 C351.112389,189.962544 350.912092,189.719544 350.920337,189.449544 Z M354.664084,179.000544 L357.504699,179.000544 C358.858636,179.000544 359.839289,177.920544 359.903639,176.570544 C359.967988,175.220544 359.075063,174.275544 357.708306,174.275544 L354.840797,174.275544 L354.664084,179.000544 Z M354.373267,186.776544 L357.535497,186.776544 C358.842204,186.776544 359.938771,185.723544 360.007039,184.319544 C360.072681,182.969544 358.801766,181.970544 357.429497,181.970544 L354.553008,181.970544 L354.373267,186.776544 Z M313.850713,217.449544 L312.991187,199.575544 C312.978203,199.305544 313.170362,199.062544 313.425168,199.062544 L319.464061,199.062544 C324.381809,199.062544 328.474928,203.301544 328.557098,208.485544 C328.640124,213.723544 324.840244,217.962544 320.116543,217.962544 L314.315935,217.962544 C314.071184,217.962544 313.863697,217.719544 313.850713,217.449544 Z M316.896878,214.668544 L319.70702,214.668544 C322.911568,214.668544 325.191987,212.022544 325.109957,208.485544 C325.028553,204.975544 322.563045,202.329544 319.273166,202.329544 L316.388194,202.329544 L316.896878,214.668544 Z M332.546065,217.449544 L332.412032,199.575544 C332.410007,199.305544 332.612029,199.062544 332.892315,199.062544 L343.262903,199.062544 C343.543189,199.062544 343.743104,199.305544 343.738737,199.575544 L343.702928,201.789544 C343.698561,202.059544 343.492165,202.302544 343.213775,202.302544 L335.722547,202.302544 L335.72513,206.730544 L341.918073,206.730544 C342.168799,206.730544 342.391156,206.973544 342.387493,207.243544 L342.357089,209.484544 C342.35306,209.781544 342.126039,209.997544 341.877051,209.997544 L335.727035,209.997544 L335.72979,214.722544 L343.025449,214.722544 C343.296571,214.722544 343.489821,214.965544 343.485454,215.235544 L343.449645,217.449544 C343.445278,217.719544 343.245547,217.962544 342.976321,217.962544 L333.01494,217.962544 C332.745713,217.962544 332.54809,217.719544 332.546065,217.449544 Z M352.889742,217.935544 L345.694807,199.764544 C345.549151,199.413544 345.759998,199.062544 346.142206,199.062544 L348.741224,199.062544 C348.970549,199.062544 349.118993,199.224544 349.166224,199.359544 L353.617545,210.969544 L353.791475,210.969544 L359.122945,199.359544 C359.18041,199.224544 359.341136,199.062544 359.570461,199.062544 L362.169478,199.062544 C362.551687,199.062544 362.735925,199.413544 362.563659,199.764544 L353.966711,217.935544 C353.886982,218.097544 353.759428,218.232544 353.539281,218.232544 L353.294673,218.232544 C353.074526,218.232544 352.957199,218.097544 352.889742,217.935544 Z" id="path-10"></path>
        <filter x="-7.2%" y="-12.6%" width="114.5%" height="116.9%" filterUnits="objectBoundingBox" id="filter-11">
            <feMorphology radius="0.5" operator="dilate" in="SourceAlpha" result="shadowSpreadOuter1"></feMorphology>
            <feOffset dx="0" dy="-2" in="shadowSpreadOuter1" result="shadowOffsetOuter1"></feOffset>
            <feGaussianBlur stdDeviation="0.5" in="shadowOffsetOuter1" result="shadowBlurOuter1"></feGaussianBlur>
            <feColorMatrix values="0 0 0 0 0.0328178146   0 0 0 0 0.0328178146   0 0 0 0 0.0328178146  0 0 0 0.12279212 0" type="matrix" in="shadowBlurOuter1"></feColorMatrix>
        </filter>
        <path d="M413.314,194.756082 L413.314,183.524082 C413.314,183.254082 413.557,183.100566 413.827,183.199993 L416.392,184.144548 C416.689,184.253918 416.905,184.57646 416.905,184.84646 L416.905,195.88946 C416.905,198.18446 418.471,200.570136 420.82,201.43515 C423.169,202.300164 424.762,201.077782 424.762,198.809782 L424.762,187.739782 C424.762,187.469782 424.978,187.306324 425.275,187.415693 L427.84,188.360249 C428.11,188.459676 428.353,188.79216 428.353,189.06216 L428.353,200.29416 C428.353,204.39816 425.086,206.516095 420.82,204.94515 C416.581,203.384147 413.314,198.860082 413.314,194.756082 Z M431.944,208.015538 L437.56,201.146617 L432.16,190.707079 C431.944,190.276538 432.16,189.951079 432.619,190.120105 L435.751,191.273457 C435.967,191.352998 436.102,191.537712 436.183,191.67554 L439.639,198.672204 L443.176,194.250697 C443.23,194.162582 443.392,194.087238 443.608,194.16678 L446.74,195.320132 C447.199,195.489157 447.415,195.973699 447.199,196.245157 L441.772,202.697677 L447.388,213.702756 C447.604,214.160298 447.388,214.458756 446.929,214.289731 L444.013,213.21592 C443.797,213.136379 443.608,212.93178 443.554,212.803894 L439.693,205.19909 L439.612,205.169262 L435.805,209.950342 C435.724,210.028514 435.562,210.103858 435.346,210.024317 L432.43,208.950506 C431.944,208.771538 431.728,208.286996 431.944,208.015538 Z" id="path-12"></path>
        <filter x="-11.7%" y="-16.0%" width="129.3%" height="132.1%" filterUnits="objectBoundingBox" id="filter-13">
            <feMorphology radius="1" operator="dilate" in="SourceAlpha" result="shadowSpreadOuter1"></feMorphology>
            <feOffset dx="1" dy="0" in="shadowSpreadOuter1" result="shadowOffsetOuter1"></feOffset>
            <feGaussianBlur stdDeviation="0.5" in="shadowOffsetOuter1" result="shadowBlurOuter1"></feGaussianBlur>
            <feColorMatrix values="0 0 0 0 0.362590349   0 0 0 0 0.0644948426   0 0 0 0 0.0644948426  0 0 0 0.5 0" type="matrix" in="shadowBlurOuter1"></feColorMatrix>
        </filter>
        <linearGradient x1="50%" y1="0%" x2="50%" y2="100%" id="linearGradient-14">
            <stop stop-color="#A3DDFF" offset="0%"></stop>
            <stop stop-color="#6AFED6" offset="100%"></stop>
        </linearGradient>
        <linearGradient x1="50%" y1="0%" x2="50%" y2="100%" id="linearGradient-15">
            <stop stop-color="#D664FF" offset="0%"></stop>
            <stop stop-color="#5C34FD" offset="100%"></stop>
        </linearGradient>
        <path d="M298.932614,107.704147 L374.067386,107.704147 C376.833772,107.704147 379.54952,108.968918 380.133179,110.529093 L388.587648,133.128664 C389.171307,134.688839 386.845211,135.95361 383.392167,135.95361 L289.607833,135.95361 C286.154789,135.95361 283.828693,134.688839 284.412352,133.128664 L292.866821,110.529093 C293.45048,108.968918 296.166228,107.704147 298.932614,107.704147 Z" id="path-16"></path>
        <linearGradient x1="50%" y1="0%" x2="50%" y2="100%" id="linearGradient-17">
            <stop stop-color="#00C6FA" offset="0%"></stop>
            <stop stop-color="#00FEB9" offset="100%"></stop>
        </linearGradient>
        <linearGradient x1="50%" y1="100%" x2="50%" y2="0%" id="linearGradient-18">
            <stop stop-color="#2AA4B7" offset="0%"></stop>
            <stop stop-color="#24839B" offset="100%"></stop>
        </linearGradient>
        <path d="M155.83582,49.9909397 L190.83582,38.0090603 C195.806382,36.3074408 199.83582,38.9574429 199.83582,43.9280056 L199.83582,127.928006 C199.83582,132.898568 195.806382,138.307441 190.83582,140.00906 L155.83582,151.99094 C150.865257,153.692559 146.83582,151.042557 146.83582,146.071994 L146.83582,62.0719944 C146.83582,57.1014316 150.865257,51.6925592 155.83582,49.9909397 Z" id="path-19"></path>
        <filter x="-28.3%" y="-6.1%" width="135.8%" height="114.8%" filterUnits="objectBoundingBox" id="filter-20">
            <feOffset dx="-4" dy="2" in="SourceAlpha" result="shadowOffsetOuter1"></feOffset>
            <feGaussianBlur stdDeviation="2" in="shadowOffsetOuter1" result="shadowBlurOuter1"></feGaussianBlur>
            <feColorMatrix values="0 0 0 0 0.185682978   0 0 0 0 0.339726201   0 0 0 0 0.395541029  0 0 0 0.5 0" type="matrix" in="shadowBlurOuter1" result="shadowMatrixOuter1"></feColorMatrix>
            <feOffset dx="-3" dy="-1" in="SourceAlpha" result="shadowOffsetOuter2"></feOffset>
            <feColorMatrix values="0 0 0 0 0.822929847   0 0 0 0 0.944116254   0 0 0 0 0.946401998  0 0 0 1 0" type="matrix" in="shadowOffsetOuter2" result="shadowMatrixOuter2"></feColorMatrix>
            <feMerge>
                <feMergeNode in="shadowMatrixOuter1"></feMergeNode>
                <feMergeNode in="shadowMatrixOuter2"></feMergeNode>
            </feMerge>
        </filter>
        <path d="M166.238496,56.4945837 L197.736367,45.7116212 C202.209571,44.1802672 205.83582,46.5651079 205.83582,51.038312 L205.83582,126.633202 C205.83582,131.106406 202.209571,135.974062 197.736367,137.505416 L166.238496,148.288379 C161.765292,149.819733 158.139044,147.434892 158.139044,142.961688 L158.139044,67.366798 C158.139044,62.8935939 161.765292,58.0259378 166.238496,56.4945837 Z" id="path-21"></path>
        <filter x="-31.4%" y="-6.8%" width="139.8%" height="116.4%" filterUnits="objectBoundingBox" id="filter-22">
            <feOffset dx="-4" dy="2" in="SourceAlpha" result="shadowOffsetOuter1"></feOffset>
            <feGaussianBlur stdDeviation="2" in="shadowOffsetOuter1" result="shadowBlurOuter1"></feGaussianBlur>
            <feColorMatrix values="0 0 0 0 0.185682978   0 0 0 0 0.339726201   0 0 0 0 0.395541029  0 0 0 0.5 0" type="matrix" in="shadowBlurOuter1" result="shadowMatrixOuter1"></feColorMatrix>
            <feOffset dx="-3" dy="-1" in="SourceAlpha" result="shadowOffsetOuter2"></feOffset>
            <feColorMatrix values="0 0 0 0 0.569564159   0 0 0 0 0.7486159   0 0 0 0 0.774952168  0 0 0 1 0" type="matrix" in="shadowOffsetOuter2" result="shadowMatrixOuter2"></feColorMatrix>
            <feMerge>
                <feMergeNode in="shadowMatrixOuter1"></feMergeNode>
                <feMergeNode in="shadowMatrixOuter2"></feMergeNode>
            </feMerge>
        </filter>
        <path d="M173.759708,64.8740905 L198.741497,56.3218398 C202.289312,55.1072827 205.165385,56.9987624 205.165385,60.5465781 L205.165385,120.502871 C205.165385,124.050686 202.289312,127.911352 198.741497,129.125909 L173.759708,137.67816 C170.211892,138.892717 167.33582,137.001238 167.33582,133.453422 L167.33582,73.4971292 C167.33582,69.9493136 170.211892,66.0886477 173.759708,64.8740905 Z" id="path-23"></path>
        <filter x="-39.7%" y="-8.5%" width="150.2%" height="120.7%" filterUnits="objectBoundingBox" id="filter-24">
            <feOffset dx="-4" dy="2" in="SourceAlpha" result="shadowOffsetOuter1"></feOffset>
            <feGaussianBlur stdDeviation="2" in="shadowOffsetOuter1" result="shadowBlurOuter1"></feGaussianBlur>
            <feColorMatrix values="0 0 0 0 0.185682978   0 0 0 0 0.339726201   0 0 0 0 0.395541029  0 0 0 0.5 0" type="matrix" in="shadowBlurOuter1" result="shadowMatrixOuter1"></feColorMatrix>
            <feOffset dx="-3" dy="-1" in="SourceAlpha" result="shadowOffsetOuter2"></feOffset>
            <feColorMatrix values="0 0 0 0 0.869127338   0 0 0 0 0.869127338   0 0 0 0 0.869127338  0 0 0 1 0" type="matrix" in="shadowOffsetOuter2" result="shadowMatrixOuter2"></feColorMatrix>
            <feMerge>
                <feMergeNode in="shadowMatrixOuter1"></feMergeNode>
                <feMergeNode in="shadowMatrixOuter2"></feMergeNode>
            </feMerge>
        </filter>
        <path d="M173.759708,64.8740905 L198.741497,56.3218398 C202.289312,55.1072827 205.165385,56.9987624 205.165385,60.5465781 L205.165385,120.502871 C205.165385,124.050686 202.289312,127.911352 198.741497,129.125909 L173.759708,137.67816 C170.211892,138.892717 167.33582,137.001238 167.33582,133.453422 L167.33582,73.4971292 C167.33582,69.9493136 170.211892,66.0886477 173.759708,64.8740905 Z" id="path-25"></path>
        <path d="M260.988015,151.664909 C264.187221,153.41196 265.003153,165.707658 263.318359,166.607422 L209.073242,186.449219 C207.764922,187.370117 211.468295,174.549726 206.936876,171.182056 C200.637228,170.701369 156.025967,154.199679 158.888974,153.122365 L217.827758,133.874193 C221.572014,132.796333 259.208375,148.705575 260.988015,151.664909 Z" id="path-26"></path>
        <filter x="-7.1%" y="-8.5%" width="114.2%" height="128.5%" filterUnits="objectBoundingBox" id="filter-27">
            <feOffset dx="0" dy="3" in="SourceAlpha" result="shadowOffsetOuter1"></feOffset>
            <feGaussianBlur stdDeviation="2" in="shadowOffsetOuter1" result="shadowBlurOuter1"></feGaussianBlur>
            <feColorMatrix values="0 0 0 0 0.394491857   0 0 0 0 0.35642303   0 0 0 0 0.423735119  0 0 0 1 0" type="matrix" in="shadowBlurOuter1"></feColorMatrix>
        </filter>
    </defs>
    <g id="Page-1" stroke="none" stroke-width="1" fill="none" fill-rule="evenodd">
        <g id="Artboard-8-Copy-2">
            <polygon id="Combined-Shape" fill="#CF73FC" points="201.916016 125.199118 277.916016 150.646264 201.916016 175.751971 125.916016 201.199118 125.916016 150.646264 201.916016 125.199118"></polygon>
            <polygon id="Combined-Shape" fill="url(#linearGradient-1)" points="202.434036 577.285563 202.434036 176.517967 278.434036 151.07082 278.434036 551.838416"></polygon>
            <polygon id="Combined-Shape" fill="url(#linearGradient-2)" points="202.434036 176.517967 202.434036 577.285563 126.434036 551.838416 126.434036 151.07082"></polygon>
            <polygon id="Combined-Shape" fill="url(#linearGradient-3)" opacity="0.289288949" points="198.434036 209.497602 198.434036 577.285563 148.132812 553.932492 148.132812 193.6875"></polygon>
            <polygon id="Combined-Shape" fill="#00A5BA" points="110.830078 191.992086 186.830078 217.439233 110.830078 242.54494 34.8300781 217.439233 110.830078 191.992086"></polygon>
            <polygon id="Combined-Shape" fill="url(#linearGradient-4)" opacity="0.71801404" points="111.348098 643.078531 111.348098 242.310935 187.348098 216.863789 187.348098 593.078531"></polygon>
            <polygon id="Combined-Shape" fill="url(#linearGradient-2)" points="111.348098 242.310935 111.348098 643.078531 35.3480983 617.631385 35.3480983 216.863789"></polygon>
            <polygon id="Combined-Shape" fill="#FF8686" points="470.841033 125.199118 546.841033 150.646264 546.841033 201.199118 470.841033 175.751971 394.841033 201.199118 394.841033 150.646264 470.841033 125.199118"></polygon>
            <polygon id="Combined-Shape" fill="url(#linearGradient-5)" points="470.323013 577.285563 394.323013 551.838416 394.323013 151.07082 470.323013 176.517967"></polygon>
            <polygon id="Combined-Shape" fill="url(#linearGradient-2)" points="470.323013 176.517967 546.323013 151.07082 546.323013 551.838416 470.323013 577.285563"></polygon>
            <polygon id="Combined-Shape" fill="url(#linearGradient-3)" opacity="0.289288949" points="475.132812 209.497602 525.434036 193.6875 525.434036 553.932492 475.132812 577.285563"></polygon>
            <polygon id="Combined-Shape" fill="#00A5BA" points="561.92697 191.992086 637.92697 217.439233 561.92697 242.54494 485.92697 217.439233 561.92697 191.992086"></polygon>
            <polygon id="Combined-Shape" fill="url(#linearGradient-6)" opacity="0.71801404" points="561.40895 643.078531 485.40895 593.078552 485.40895 216.863789 561.40895 242.310935"></polygon>
            <polygon id="Combined-Shape" fill="url(#linearGradient-2)" points="561.40895 242.310935 637.40895 216.863789 637.40895 617.631385 561.40895 643.078531"></polygon>
            <polygon id="Rectangle-14" fill="url(#linearGradient-7)" points="286.851562 150.203125 385.851562 150.203125 385.851562 549.984375 286.851562 549.984375"></polygon>
            <polygon id="Rectangle-14-Copy-3" fill="#FFFFFF" opacity="0.320482337" points="295.374221 338.544937 377.379866 338.544937 385.755922 361.642563 286.947778 361.642563"></polygon>
            <polygon id="Rectangle-14-Copy-4" fill="#FFFFFF" opacity="0.320482337" points="295.374221 448.642593 377.379866 448.642593 385.755922 471.740219 286.947778 471.740219"></polygon>
            <polygon id="Rectangle-14" fill="#64FFD0" points="295.374221 127.3125 377.379866 127.3125 385.755922 150.410126 286.947778 150.410126"></polygon>
            <polygon id="Rectangle-2-Copy-2" fill="#6FD7BA" opacity="0.732506793" points="111.348098 461.486531 111.348098 410.933678 187.348098 380.486531 187.348098 428.097656"></polygon>
            <polygon id="Rectangle-2-Copy-3" fill="#87FAFF" opacity="0.695369112" points="111.348098 343.5 111.348098 292.947147 187.348098 265.5 187.348098 313.111125"></polygon>
            <polygon id="Rectangle-2-Copy-2" fill-opacity="0.573312953" fill="#FBF699" points="561.434036 421.486531 485.434036 388.097656 485.434036 340.486531 561.434036 370.933678"></polygon>
            <polygon id="Rectangle-2-Copy-3" fill="#B1F5F5" opacity="0.540874094" points="561.434036 363.5 485.434036 333.111125 485.434036 285.5 561.434036 312.947147"></polygon>
            <polygon id="Rectangle-14-Copy" fill="#FFFFFF" opacity="0.320482337" points="295.374221 262.402374 377.379866 262.402374 385.755922 285.5 286.947778 285.5"></polygon>
            <g id="UI">
                <use fill="black" fill-opacity="1" filter="url(#filter-9)" xlink:href="#path-8"></use>
                <use fill="#FFFFFF" fill-rule="evenodd" xlink:href="#path-8"></use>
            </g>
            <g id="WEB-DEV">
                <use fill="black" fill-opacity="1" filter="url(#filter-11)" xlink:href="#path-10"></use>
                <use fill="#FFFFFF" fill-rule="evenodd" xlink:href="#path-10"></use>
            </g>
            <g id="UX">
                <use fill="black" fill-opacity="1" filter="url(#filter-13)" xlink:href="#path-12"></use>
                <use fill="#FFFFFF" fill-rule="evenodd" xlink:href="#path-12"></use>
            </g>
            <path d="M299,57.8613281 L374,57.8613281 C376.761424,57.8613281 379,60.0999044 379,62.8613281 L379,102.861328 C379,105.622752 376.761424,107.861328 374,107.861328 L299,107.861328 C296.238576,107.861328 294,105.622752 294,102.861328 L294,62.8613281 C294,60.0999044 296.238576,57.8613281 299,57.8613281 Z" id="Rectangle-17" stroke="#E8E8E8" fill="#FFFFFF"></path>
            <path d="M302.847168,62.6748047 L349.5,62.6748047 C352.261424,62.6748047 354.5,64.9133809 354.5,67.6748047 L354.5,99.3037109 C354.5,102.065135 352.261424,104.303711 349.5,104.303711 L302.847168,104.303711 C300.085744,104.303711 297.847168,102.065135 297.847168,99.3037109 L297.847168,67.6748047 C297.847168,64.9133809 300.085744,62.6748047 302.847168,62.6748047 Z" id="Rectangle-17" fill="url(#linearGradient-14)"></path>
            <g id="Rectangle-17-Copy">
                <use fill="url(#linearGradient-15)" fill-rule="evenodd" xlink:href="#path-16"></use>
                <path stroke="#FFFFFF" stroke-width="0.5" d="M298.932614,107.954147 C296.259136,107.954147 293.640858,109.173525 293.100972,110.616689 L284.646504,133.21626 C284.153435,134.534277 286.304007,135.70361 289.607833,135.70361 L383.392167,135.70361 C386.695993,135.70361 388.846565,134.534277 388.353496,133.21626 L379.899028,110.616689 C379.359142,109.173525 376.740864,107.954147 374.067386,107.954147 L298.932614,107.954147 Z"></path>
            </g>
            <circle id="Oval-9-Copy" fill="#374548" cx="315.5" cy="98.6279297" r="2.5"></circle>
            <circle id="Oval-9-Copy-2" fill="#7F9AA1" cx="324.5" cy="98.6279297" r="2.5"></circle>
            <circle id="Oval-9-Copy-3" fill="#374548" cx="333.5" cy="98.6279297" r="2.5"></circle>
            <path d="M315.38,67 L318.42,67" id="Line" stroke="#69848B" stroke-width="2" stroke-linecap="round" stroke-linejoin="round"></path>
            <path d="M322.98,67 L326.02,67" id="Line" stroke="#F48E8E" stroke-width="2" stroke-linecap="round" stroke-linejoin="round"></path>
            <path d="M330.58,67 L333.62,67" id="Line" stroke="#69848B" stroke-width="2" stroke-linecap="round" stroke-linejoin="round"></path>
            <path d="M306.5,70.8613281 L342.5,70.8613281 C343.052285,70.8613281 343.5,71.3090434 343.5,71.8613281 C343.5,72.4136129 343.052285,72.8613281 342.5,72.8613281 L306.5,72.8613281 C305.947715,72.8613281 305.5,72.4136129 305.5,71.8613281 C305.5,71.3090434 305.947715,70.8613281 306.5,70.8613281 Z" id="Rectangle-18" fill="#FFFFFF"></path>
            <path d="M311.5,75.5 L337.5,75.5 C338.604569,75.5 339.5,76.3954305 339.5,77.5 L339.5,84.5898438 C339.5,85.6944132 338.604569,86.5898438 337.5,86.5898438 L311.5,86.5898438 C310.395431,86.5898438 309.5,85.6944132 309.5,84.5898438 L309.5,77.5 C309.5,76.3954305 310.395431,75.5 311.5,75.5 Z" id="Rectangle-18-Copy" fill="#FFFFFF"></path>
            <path d="M308,89.5 L341,89.5 C341.552285,89.5 342,89.9477153 342,90.5 C342,91.0522847 341.552285,91.5 341,91.5 L308,91.5 C307.447715,91.5 307,91.0522847 307,90.5 C307,89.9477153 307.447715,89.5 308,89.5 Z" id="Rectangle-18-Copy-3" fill="#FFFFFF"></path>
            <path d="M352.5,60.5 L372.5,60.5 C374.156854,60.5 375.5,61.8431458 375.5,63.5 L375.5,104.5 C375.5,106.156854 374.156854,107.5 372.5,107.5 L352.5,107.5 C350.843146,107.5 349.5,106.156854 349.5,104.5 L349.5,63.5 C349.5,61.8431458 350.843146,60.5 352.5,60.5 Z" id="Rectangle-19" fill="#4E4E4E"></path>
            <text id="&lt;&amp;&gt;" font-family="BrandonGrotesque-Bold, Brandon Grotesque" font-size="4.8" font-weight="bold" letter-spacing="0.324000013" fill="#FFFFFF">
                <tspan x="352.721687" y="67.1">&lt;</tspan>
                <tspan x="355.138487" y="67.1" font-size="3.6">&amp;</tspan>
                <tspan x="357.942887" y="67.1">&gt;</tspan>
            </text>
            <text id="&lt;&amp;&gt;-copy" font-family="BrandonGrotesque-Bold, Brandon Grotesque" font-size="4.8" font-weight="bold" letter-spacing="0.324000013" fill="#FFFFFF">
                <tspan x="352.721687" y="79.5">&lt;</tspan>
                <tspan x="355.138487" y="79.5" font-size="3.6">&amp;</tspan>
                <tspan x="357.942887" y="79.5">&gt;</tspan>
            </text>
            <text id="&lt;#&gt;" font-family="BrandonGrotesque-Bold, Brandon Grotesque" font-size="4.8" font-weight="bold" letter-spacing="0.324000013" fill="#FFFFFF">
                <tspan x="354.9528" y="71.14">&lt;</tspan>
                <tspan x="357.3696" y="71.14" font-size="3.6">#</tspan>
                <tspan x="359.6304" y="71.14">&gt;</tspan>
            </text>
            <text id="&lt;#&gt;-copy" font-family="BrandonGrotesque-Bold, Brandon Grotesque" font-size="4.8" font-weight="bold" letter-spacing="0.324000013" fill="#FFFFFF">
                <tspan x="354.9528" y="74.9">&lt;</tspan>
                <tspan x="357.3696" y="74.9" font-size="3.6">#</tspan>
                <tspan x="359.6304" y="74.9">&gt;</tspan>
            </text>
            <path d="M354,84 L371,84" id="Line-2" stroke="#B2B1B1" stroke-linecap="round" stroke-dasharray="2,2"></path>
            <path d="M299.934074,114.474609 L373,114.474609" id="Line-2" stroke="#FFFFFF" stroke-width="2" stroke-linecap="round" stroke-dasharray="2,4"></path>
            <path d="M299.934074,119 L373,119" id="Line-2-Copy-4" stroke="#FFFFFF" stroke-width="2" stroke-linecap="round" stroke-dasharray="2,4"></path>
            <path d="M299.934074,123 L373,123" id="Line-2-Copy-5" stroke="#FFFFFF" stroke-width="2" stroke-linecap="round" stroke-dasharray="2,4"></path>
            <path d="M321,128 L351.565926,128" id="Line-2-Copy-6" stroke="#FFFFFF" stroke-width="2" stroke-linecap="round"></path>
            <path d="M371,87 L358,87 L371,87 Z" id="Line-2-Copy" stroke="#D4D0D0" stroke-linecap="round" stroke-dasharray="2,2"></path>
            <path d="M354,90 L369,90" id="Line-2-Copy-2" stroke="#B2B1B1" stroke-linecap="round" stroke-dasharray="2,2"></path>
            <path d="M371,93 L362,93 L371,93 Z" id="Line-2-Copy-3" stroke="#E1E1E1" stroke-linecap="round" stroke-dasharray="2,2"></path>
            <path d="M456.060547,57.8740234 C457.287109,61.4716797 458.844401,63.5302734 460.732422,64.0498047" id="Path-18" stroke="#F8FF25" stroke-width="2"></path>
            <path d="M455.060547,64.8740234 C456.287109,68.4716797 457.844401,70.5302734 459.732422,71.0498047" id="Path-18" stroke="#F8FF25" stroke-width="2"></path>
            <path d="M459.183237,159.675867 L450.915422,162.444186 L434.199219,156.847086 L433.838289,156.967936 L433.838289,145.367054 L434.199219,145.487905 L450.915422,139.890804 L454.933456,141.236166 L454.933456,140.541198 L479.489228,132.319168 L504.045,140.541198 L504.045,158.252909 L479.489228,166.474939 L459.183237,159.675867 Z M481.711678,149.397054 L479.489228,148.652909 L477.266779,149.397054 L479.489228,150.141198 L481.711678,149.397054 Z" id="Combined-Shape" fill="#D36E6E"></path>
            <path d="M494.473497,52.2729688 C494.473497,54.1929687 499.128652,58.8790625 508.438963,66.33125 L501.870609,72.1790137 C501.70735,72.3243622 501.537556,72.4622008 501.361756,72.592101 C498.163651,74.955209 493.655397,74.27831 491.292289,71.0802049 L488.974756,67.943779 C487.268086,65.6340624 487.097217,62.5310203 488.539967,60.0478801 C492.495653,53.2396856 494.473497,50.6480484 494.473497,52.2729688 Z" id="Path-3" fill="#EEDDB5"></path>
            <path d="M505.992088,66.7503125 C501.181306,57.1808801 498.652869,72.8928125 498.652869,62.309375 C498.652869,58.6083931 497.422854,59.304681 496.2524,56.8067188 C495.081946,54.3087565 488.717296,53.5555257 490.495213,52.4473437 C492.27313,51.3391618 499.081994,48.4270893 505.992088,50.7359375 C510.598817,52.2751696 512.411004,55.2958617 511.42865,59.7980139 C508.814224,66.4418342 507.002037,68.759267 505.992088,66.7503125 Z" id="Path-3" fill="#090909"></path>
            <polygon id="Path-4" fill="#EEDDB5" points="503.62578 70.9069997 503.62578 77.0269997 498.002187 77.0269997 500.813983 70.9069997"></polygon>
            <path d="M494.09857,65.4637542 C497.405163,72.0411081 499.143032,61.2418322 499.143032,68.5161419 C499.143032,71.0599362 499.988458,70.5813569 500.792946,72.2982803 C501.597433,74.0152036 498.029803,74.6393615 493.280291,73.0524219 C490.113949,71.9944621 488.198168,69.164384 487.532947,64.5621875 C491.215861,63.7824181 493.404402,64.0829403 494.09857,65.4637542 Z" id="Path-3" fill="#000000"></path>
            <path d="M493.220013,136.10649 C493.627062,137.437885 496.10517,138.650183 494.415749,140.017565 C493.289468,140.929154 490.673931,142.012429 486.569137,143.26739 L478.428585,144.905332 C474.187192,143.350957 473.198083,142.227809 475.461259,141.535886 C477.724435,140.843964 480.48655,139.584309 483.747605,137.756922 C489.791178,135.769037 492.948648,135.218893 493.220013,136.10649 Z" id="Path-7" fill="#EEDDB5"></path>
            <polygon id="Path-5" fill="#334D73" points="492.161619 108.176499 480.188806 123.036875 494.523212 138.029546 484.577045 141.070395 473.555328 127.842493 474.520372 108.176499 494.523212 98.916875"></polygon>
            <path d="M482.255423,145.275735 C482.255423,146.667964 484.270809,148.551819 482.255423,149.365514 C480.911833,149.907978 478.093863,150.17921 473.801514,150.17921 L465.537778,149.365514 C461.936168,146.638995 461.318656,145.275735 463.68524,145.275735 C466.051825,145.275735 469.061536,144.878686 472.714374,144.084587 C479.075073,143.950533 482.255423,144.347583 482.255423,145.275735 Z" id="Path-7" fill="#EEDDB5"></path>
            <polygon id="Path-5" fill="#3E5B84" points="503.990994 109.143125 482.939431 117.133438 476.484744 133.389688 482.939431 147.495781 472.538806 147.495781 465.86615 131.623438 472.538806 113.098906 482.939431 104.183281"></polygon>
            <path d="M497.560455,75.5869997 C501.588893,75.5869997 504.903424,76.3294997 507.504049,77.8144997 C507.442012,89.1020811 507.410994,96.7356749 507.410994,100.715281 C507.410994,106.68469 507.504049,106.710313 504.6674,112.485593 C502.776301,116.335781 497.832007,116.971 489.834518,114.39125 L482.004518,103.762813 L489.834518,97.8451247 C490.956705,83.0063747 493.532018,75.5869997 497.560455,75.5869997 Z" id="Path-5" fill="url(#linearGradient-17)"></path>
            <path d="M498.213416,116.79875 C498.611061,116.79875 498.933416,117.121105 498.933416,117.51875 L498.933416,139.11875 C498.933416,139.516395 498.611061,139.83875 498.213416,139.83875 C497.815771,139.83875 497.493416,139.516395 497.493416,139.11875 L497.493416,117.51875 C497.493416,117.121105 497.815771,116.79875 498.213416,116.79875 Z" id="Rectangle-16-Copy" fill="#FFFFFF"></path>
            <path d="M485.786586,114.503779 C485.786586,112.515554 487.398361,110.903779 489.386586,110.903779 L506.666586,110.903779 C508.654811,110.903779 510.266586,112.515554 510.266586,114.503779 C510.266586,116.492004 508.654811,118.103779 506.666586,118.103779 L489.386586,118.103779 C487.398361,118.103779 485.786586,116.492004 485.786586,114.503779 Z" id="Rectangle-16" fill="#C1615C"></path>
            <path d="M469.830527,84.5352752 C469.830527,85.9275042 471.12178,85.5650544 469.830527,86.37875 C468.969692,86.9212138 466.932049,87.6699819 463.717598,88.6250544 L459.119568,88.6250544 C456.812025,85.8985349 456.416386,84.5352752 457.932652,84.5352752 C459.448917,84.5352752 461.377233,84.1382258 463.717598,83.344127 C467.792884,83.2100732 469.830527,83.6071226 469.830527,84.5352752 Z" id="Path-7" fill="#EEDDB5"></path>
            <path d="M498.786463,80.5990625 C500.993338,84.648125 500.993338,86.9942187 498.786463,87.6373437 C496.579588,88.2804687 490.860369,88.6020312 481.628806,88.6020312 L467.995213,87.6373437 L465.129978,83.5775 L473.575213,82.5382812 L485.647869,80.5990625 L498.786463,80.5990625 Z" id="Path-6" fill="url(#linearGradient-18)"></path>
            <polygon id="Path-8" stroke="#FFFFFF" stroke-width="1.44" points="452.734588 72.895625 445.5374 146.455156 445.5374 76.4801562"></polygon>
            <path d="M454.720778,50.6626053 C455.996556,50.6626053 457.030778,51.6968275 457.030778,52.9726053 L457.030778,101.52875 C457.030778,102.804528 455.996556,103.83875 454.720778,103.83875 C453.445001,103.83875 452.410779,102.804528 452.410779,101.52875 L452.410779,52.9726053 C452.410779,51.6968275 453.445001,50.6626053 454.720778,50.6626053 Z" id="Rectangle-16" fill="#413031"></path>
            <g id="Rectangle-20">
                <use fill="black" fill-opacity="1" filter="url(#filter-20)" xlink:href="#path-19"></use>
                <use fill="#4C4C4C" fill-rule="evenodd" xlink:href="#path-19"></use>
            </g>
            <g id="Rectangle-20">
                <use fill="black" fill-opacity="1" filter="url(#filter-22)" xlink:href="#path-21"></use>
                <use fill="#0BFFDE" fill-rule="evenodd" xlink:href="#path-21"></use>
            </g>
            <ellipse id="Oval-9" fill="#80BCD2" cx="183.5" cy="135.5" rx="2.5" ry="3"></ellipse>
            <g id="Rectangle-20">
                <use fill="black" fill-opacity="1" filter="url(#filter-24)" xlink:href="#path-23"></use>
                <use fill="#FFFFFF" fill-rule="evenodd" xlink:href="#path-23"></use>
            </g>
            <g id="Rectangle-20">
                <use fill="#FFFFFF" fill-rule="evenodd" xlink:href="#path-25"></use>
                <path stroke="#D995FF" stroke-width="1" d="M173.921651,65.3471386 C170.572392,66.4937221 167.83582,70.1671307 167.83582,73.4971292 L167.83582,133.453422 C167.83582,136.648045 170.365428,138.311669 173.597765,137.205112 L198.579554,128.652861 C201.928813,127.506278 204.665385,123.832869 204.665385,120.502871 L204.665385,60.5465781 C204.665385,57.3519551 202.135777,55.6883314 198.90344,56.7948878 L173.921651,65.3471386 Z"></path>
            </g>
            <ellipse id="Oval-9" fill="#57E7EB" cx="187.5" cy="125.984375" rx="2.5" ry="3"></ellipse>
            <g id="Combined-Shape">
                <use fill="black" fill-opacity="1" filter="url(#filter-27)" xlink:href="#path-26"></use>
                <use fill="#FFFFFF" fill-rule="evenodd" xlink:href="#path-26"></use>
            </g>
            <polygon id="Path-9" stroke="#227FBD" stroke-width="0.5" points="183.521728 149.932272 195.002652 145.775053 206.298382 152.776088 196.601233 156.624271"></polygon>
            <polygon id="Path-9" stroke="#227FBD" stroke-width="0.5" points="202.828404 142.696052 212.274598 139.464805 224.66218 145.480787 214.309328 149.513028"></polygon>
            <polygon id="Path-9" stroke="#227FBD" stroke-width="0.5" points="217.372882 152.340369 228.853806 148.18315 240.709664 154.655869 228.853806 159.02555"></polygon>
            <path d="M238.145022,151.447913 C239.142291,149.196017 245.002478,148.774105 247.831946,146.83282" id="Path-10" stroke="#979797" stroke-width="0.5"></path>
            <path d="M235.353471,149.851605 C240.815062,145.780283 239.601404,151.832125 245.439187,145.400119" id="Path-11" stroke="#C1615C" stroke-width="0.5"></path>
            <path d="M244.145022,165.447913 C245.142291,163.196017 251.002478,162.774105 253.831946,160.83282" id="Path-10" stroke="#979797" stroke-width="0.5"></path>
            <path d="M241.353471,163.851605 C246.815062,159.780283 245.601404,165.832125 251.439187,159.400119" id="Path-11" stroke="#C1615C" stroke-width="0.5"></path>
            <path d="M191.339664,151.71832 C180.816767,158.32048 194.46734,165.238795 202.090035,166.346415 C213.23783,167.966251 215.077783,164.213691 225.090513,158.373961" id="Path-12" stroke="#565656" stroke-width="0.5"></path>
            <path d="M221.298002,157.524111 C225.88575,157.943554 224.975416,156.653413 224.674677,160.846251" id="Path-13" stroke="#565656" stroke-width="0.5"></path>
            <path d="M188.092511,150.878696 C192.490248,151.675996 191.586504,150.318723 191.827078,154.038364" id="Path-14" stroke="#565656" stroke-width="0.5"></path>
            <path d="M213.939928,141.387761 C226.493033,140.943513 229.36134,140.354694 232.086719,151.905503" id="Path-15" stroke="#565656" stroke-width="0.5"></path>
            <path d="M228.745548,150.26744 C233.424698,152.386551 232.109506,153.197061 232.997069,148.422312" id="Path-16" stroke="#565656" stroke-width="0.5" stroke-linecap="round" stroke-linejoin="round"></path>
            <path d="M216.495442,138.85355 C212.57193,142.251632 212.249795,141.090355 217.140783,142.410875" id="Path-17" stroke="#565656" stroke-width="0.5" stroke-linecap="round" stroke-linejoin="round"></path>
            <path d="M203.242104,160.755358 C204.239373,158.503462 210.099559,158.08155 212.929027,156.140265" id="Path-10" stroke="#979797" stroke-width="0.5"></path>
            <path d="M205.104275,161.485911 C210.565866,157.414589 209.352208,163.466431 215.189991,157.034425" id="Path-11" stroke="#C1615C" stroke-width="0.5"></path>
            <path d="M224.154297,163.887695 L234.845215,160.22168 C237.260579,160.913737 238.468262,164.881348 238.468262,172.124512 L230.050293,175.400879 C229.524639,173.205582 228.757875,171.077327 227.75,169.016113 C226.742125,166.9549 225.543557,165.245427 224.154297,163.887695 Z" id="Path-19" stroke="#227FBD" stroke-width="0.5"></path>
        </g>
    </g>
</svg>