<?xml version="1.0" encoding="UTF-8"?>
<svg width="53px" height="103px" viewBox="0 0 53 103" version="1.1" xmlns="http://www.w3.org/2000/svg" xmlns:xlink="http://www.w3.org/1999/xlink">
    <!-- Generator: Sketch 48.2 (47327) - http://www.bohemiancoding.com/sketch -->
    <title>Artboard 9 Copy</title>
    <desc>Created with Sketch.</desc>
    <defs>
        <linearGradient x1="73.0263158%" y1="95.0443412%" x2="0%" y2="-11.5793919%" id="linearGradient-1">
            <stop stop-color="#002F3A" offset="0%"></stop>
            <stop stop-color="#1B2383" offset="100%"></stop>
        </linearGradient>
    </defs>
    <g id="Page-1" stroke="none" stroke-width="1" fill="none" fill-rule="evenodd">
        <g id="Artboard-9-Copy" fill="url(#linearGradient-1)" fill-rule="nonzero">
            <path d="M28.3916016,9.71665462 L28.3916016,28.7734375 L24.3916016,28.7734375 L24.3916016,7.33789063 C24.3916016,6.23332113 25.2870321,5.33789063 26.3916016,5.33789063 C26.4279693,5.33789063 26.4641102,5.33886131 26.5,5.34077818 L26.5,5.2734375 C39.6167628,5.2734375 50.25,15.9066747 50.25,29.0234375 C50.25,39.473524 43.5008055,48.3472516 34.1235996,51.5234375 C43.5008055,54.6996234 50.25,63.573351 50.25,74.0234375 L45.6454341,74.0234375 C45.6454832,74.0055396 45.6455078,73.987636 45.6455078,73.9697266 C45.6455078,63.3937972 37.0720231,54.8203125 26.4960937,54.8203125 C15.9201644,54.8203125 7.34667969,63.3937972 7.34667969,73.9697266 C7.34667969,84.5456559 15.9201644,93.1191406 26.4960937,93.1191406 L26.5,93.1191402 L26.5,97.7734375 C13.3832372,97.7734375 2.75,87.1402003 2.75,74.0234375 C2.75,63.573351 9.49919445,54.6996234 18.8764004,51.5234375 C9.49919445,48.3472516 2.75,39.473524 2.75,29.0234375 L7.34827819,29.0234375 C7.48211834,39.4841469 16.0036235,47.9228516 26.4960937,47.9228516 C37.0720231,47.9228516 45.6455078,39.3493669 45.6455078,28.7734375 C45.6455078,18.8371536 38.0777316,10.6684185 28.3916016,9.71665462 Z" id="Combined-Shape"></path>
        </g>
    </g>
</svg>