<?xml version="1.0" encoding="UTF-8"?>
<svg width="128px" height="128px" viewBox="0 0 128 128" version="1.1" xmlns="http://www.w3.org/2000/svg" xmlns:xlink="http://www.w3.org/1999/xlink">
    <!-- Generator: Sketch 48.1 (47250) - http://www.bohemiancoding.com/sketch -->
    <title>Artboard 13</title>
    <desc>Created with Sketch.</desc>
    <defs></defs>
    <g id="Page-1" stroke="none" stroke-width="1" fill="none" fill-rule="evenodd">
        <g id="Artboard-13">
            <g id="Group" transform="translate(11.000000, 11.000000)">
                <rect id="Rectangle-23" stroke="#FFFFFF" x="1" y="1" width="104" height="104"></rect>
                <path d="M25.46,46.47 L26.28,45.41 C26.28,45.41 27.74,46.95 29.96,46.95 C31.5,46.95 32.76,46.03 32.76,44.51 C32.76,40.97 25.74,41.87 25.74,37.51 C25.74,35.49 27.52,33.73 30.12,33.73 C32.56,33.73 33.88,35.09 33.88,35.09 L33.2,36.25 C33.2,36.25 31.96,35.05 30.12,35.05 C28.32,35.05 27.16,36.23 27.16,37.47 C27.16,40.81 34.18,39.85 34.18,44.47 C34.18,46.57 32.56,48.27 29.92,48.27 C27.04,48.27 25.46,46.47 25.46,46.47 Z M36.62,42.95 C36.62,39.97 39,37.73 41.94,37.73 C44.88,37.73 47.26,39.97 47.26,42.95 C47.26,45.99 44.88,48.27 41.94,48.27 C39,48.27 36.62,45.99 36.62,42.95 Z M38.02,42.95 C38.02,45.29 39.78,47.05 41.94,47.05 C44.1,47.05 45.86,45.29 45.86,42.95 C45.86,40.67 44.1,38.97 41.94,38.97 C39.78,38.97 38.02,40.67 38.02,42.95 Z M49.6,43.01 C49.6,39.91 51.92,37.73 54.88,37.73 C57.34,37.73 58.56,39.17 58.56,39.17 L57.86,40.19 C57.86,40.19 56.74,38.97 54.92,38.97 C52.72,38.97 51,40.61 51,43.01 C51,45.37 52.74,47.05 54.96,47.05 C57,47.05 58.18,45.63 58.18,45.63 L58.8,46.69 C58.8,46.69 57.44,48.27 54.88,48.27 C51.9,48.27 49.6,46.13 49.6,43.01 Z M61.74,35.67 L61.74,33.97 L63.16,33.97 L63.16,35.67 L61.74,35.67 Z M61.78,48.03 L61.78,37.97 L63.14,37.97 L63.14,48.03 L61.78,48.03 Z M66.1,45.29 C66.1,41.89 70.52,41.81 72.26,41.81 L72.82,41.81 L72.82,41.55 C72.82,39.61 71.76,38.95 70.32,38.95 C68.66,38.95 67.48,39.91 67.48,39.91 L66.84,38.87 C66.84,38.87 68.16,37.73 70.42,37.73 C72.84,37.73 74.18,39.07 74.18,41.59 L74.18,48.03 L72.88,48.03 L72.88,46.93 C72.88,46.43 72.92,46.09 72.92,46.09 L72.88,46.09 C72.88,46.09 72.04,48.27 69.52,48.27 C67.84,48.27 66.1,47.29 66.1,45.29 Z M67.5,45.21 C67.5,46.15 68.24,47.11 69.74,47.11 C71.66,47.11 72.82,45.11 72.82,43.37 L72.82,42.93 L72.24,42.93 C70.66,42.93 67.5,42.99 67.5,45.21 Z M77.72,45.65 L77.72,33.97 L79.08,33.97 L79.08,45.35 C79.08,46.67 79.68,46.87 80.2,46.87 C80.38,46.87 80.54,46.85 80.54,46.85 L80.54,48.07 C80.54,48.07 80.3,48.11 80.04,48.11 C79.2,48.11 77.72,47.85 77.72,45.65 Z M33.71,72.03 L33.71,57.97 L35.09,57.97 L35.09,72.03 L33.71,72.03 Z M47.15,69.63 C47.15,69.63 47.1499886,69.63 47.1499886,69.6300137 L47.15,69.63 Z M47.15,69.63 L47.77,70.69 C47.77,70.69 46.41,72.27 43.85,72.27 C40.87,72.27 38.57,70.13 38.57,67.01 C38.57,63.91 40.89,61.73 43.85,61.73 C46.31,61.73 47.53,63.17 47.53,63.17 L46.83,64.19 C46.83,64.19 45.71,62.97 43.89,62.97 C41.69,62.97 39.97,64.61 39.97,67.01 C39.97,69.37 41.71,71.05 43.93,71.05 C45.9663459,71.05 47.1457699,69.6350826 47.1499886,69.6300137 L47.15,69.63 Z M50.01,66.95 C50.01,63.97 52.39,61.73 55.33,61.73 C58.27,61.73 60.65,63.97 60.65,66.95 C60.65,69.99 58.27,72.27 55.33,72.27 C52.39,72.27 50.01,69.99 50.01,66.95 Z M51.41,66.95 C51.41,69.29 53.17,71.05 55.33,71.05 C57.49,71.05 59.25,69.29 59.25,66.95 C59.25,64.67 57.49,62.97 55.33,62.97 C53.17,62.97 51.41,64.67 51.41,66.95 Z M63.69,72.03 L63.69,61.97 L65.03,61.97 L65.03,63.47 C65.03,63.91 64.99,64.27 64.99,64.27 L65.03,64.27 C65.39,63.35 66.67,61.73 69.05,61.73 C71.53,61.73 72.41,63.15 72.41,65.63 L72.41,72.03 L71.05,72.03 L71.05,65.99 C71.05,64.41 70.81,63.01 68.87,63.01 C67.15,63.01 65.67,64.19 65.21,65.85 C65.09,66.27 65.05,66.73 65.05,67.21 L65.05,72.03 L63.69,72.03 Z" id="Social-Icon" fill="#FFFFFF"></path>
            </g>
        </g>
    </g>
</svg>